<svg xmlns="http://www.w3.org/2000/svg" fill="#fff" viewBox="0 0 512 512"><defs/><path d="M487 248c0-70-101-192-149-243-6-7-16-7-22 0-1 1-32 34-65 77l-32-36c-6-7-16-7-22 0-2 2-43 46-85 102-58 78-87 138-87 180a183 183 0 00352 71c65-21 110-82 110-151zM208 482c-84 0-153-69-153-154 0-66 102-193 153-250 46 51 153 182 153 250a154 154 0 01-153 154zm180-120c2-11 3-22 3-34 0-67-77-169-120-222 22-29 44-55 56-69 56 62 130 161 130 211 0 48-27 92-69 114z"/><path d="M245 261l-96 96a15 15 0 1022 22l96-96a15 15 0 10-22-22zM153 283a15 15 0 1030-6 15 15 0 00-30 6zM263 357a15 15 0 10-30 6 15 15 0 0030-6z"/></svg>