<svg xmlns="http://www.w3.org/2000/svg" fill="#fff" viewBox="0 0 512 512"><defs/><path d="M296 66a45 45 0 10-80 0 225 225 0 1080 0zm-40-36a15 15 0 110 30 15 15 0 010-30zm0 452a195 195 0 110-390 195 195 0 010 390z"/><path d="M373 171v-1h-1a165 165 0 00-232 0h-1v1c-30 30-48 71-48 116 0 8 7 15 15 15h17a15 15 0 000-30h-1c3-26 13-50 29-69v1a15 15 0 0022 0c5-6 5-16 0-22h-1c19-16 43-26 69-29v1a15 15 0 0030 0v-1c26 3 50 13 69 29h-1a15 15 0 0022 22v-1c16 19 26 43 29 69h-1a15 15 0 000 30h17c9 0 15-7 15-15 0-45-18-86-48-116z"/><path d="M324 219c-6-6-15-6-21 0l-63 63c-7-3-15-5-22-4a15 15 0 002 29 15 15 0 0116 16 15 15 0 0030 2c0-8-1-15-5-22l63-63c6-5 6-15 0-21zM342 395H170a15 15 0 000 30h172a15 15 0 000-30z"/></svg>