<svg xmlns="http://www.w3.org/2000/svg" fill="#fff" viewBox="0 0 512 512"><defs/><path d="M256 98c8 0 15-6 15-15V15a15 15 0 00-30 0v68c0 9 7 15 15 15zM497 241h-68a15 15 0 000 30h68a15 15 0 000-30zM98 256c0-8-6-15-15-15H15a15 15 0 000 30h68c9 0 15-7 15-15zM396 132c4 0 8-2 11-4l36-37a15 15 0 10-21-22l-37 37a15 15 0 0011 26zM105 128a15 15 0 0022 0c6-6 6-16 0-22L90 69a15 15 0 10-21 22z"/><path d="M441 306h-66a129 129 0 10-238 0H71a15 15 0 000 30h370a15 15 0 000-30zm-284-50a100 100 0 11185 50H170c-9-15-13-32-13-50zM350 365H162a15 15 0 000 30h188a15 15 0 100-30z"/></svg>