<svg xmlns="http://www.w3.org/2000/svg" fill="#fff" viewBox="0 0 512 512"><defs/><path d="M256 157c8 0 15-7 15-15V74a15 15 0 00-30 0v68c0 8 7 15 15 15zM497 300h-68a15 15 0 000 30h68a15 15 0 000-30zM98 315c0-9-6-15-15-15H15a15 15 0 000 30h68c9 0 15-7 15-15zM396 191c4 0 8-2 11-5l36-37a15 15 0 10-21-21l-37 37a15 15 0 0011 26zM105 186a15 15 0 0022 0c6-6 6-15 0-21l-37-37a15 15 0 10-21 21z"/><path d="M441 365h-66a129 129 0 00-119-180 130 130 0 00-119 180H71a15 15 0 000 30h370a15 15 0 000-30zM350 423H162a15 15 0 000 30h188a15 15 0 100-30z"/></svg>